<svg width="96" height="96" xmlns="http://www.w3.org/2000/svg"
     xmlns:xlink="http://www.w3.org/1999/xlink"
     viewbox="0 0 96 96">
  <defs>
    <path d="M21 6c2.933 0 5.333 2.4 5.333 5.333 0 2.934-2.4 5.334-5.333 
             5.334-2.933 0-5.333-2.4-5.333-5.334C15.667 8.4 18.067 6 21 
             6zm16 29.333V38H5v-2.64C5.533 33.44 13.8 30 21 30c7.2 0 15.467 3.44 
             16 5.333zM21 .667c-5.893 0-10.667 4.773-10.667 10.666C10.333 17.227 
             15.107 22 21 22s10.667-4.773 10.667-10.667C31.667 5.44 26.893.667 
             21 .667zM0 35.333V43h42v-7.667c0-7.093-13.88-10.666-21-10.666-7.12
             0-21 3.573-21 10.666z" id="a"/>
  </defs>
  <g fill="none" fill-rule="evenodd">
    <path fill="#E8EAED" d="M0 0h96v96H0z"/>
    <g transform="translate(27 27)">
      <mask id="b" fill="#fff">
        <use xlink:href="#a"/></mask>
      <path fill="#BDC1C6" mask="url(#b)" d="M-11-11h64v64h-64z"/>
    </g>
  </g>
</svg>
